<svg xmlns="http://www.w3.org/2000/svg" viewBox="0 0 460 144"><path fill="#ffffff" d="M230.19 35.91c10.12.16 19.84-1.61 29.66-1.23 4.41.17 6.84-3.14 7.87-9.61 1.23-7.73 1.23-7.7 9.33-7.33 5.62.26 11.24-.02 16.89.41 2.7.21 5.15.81 7.67 1.47 1.28.33 2.9.54 2.51 2.37-.29 1.4-1.57 1.9-2.98 2.24-7.59 1.82-15.25 2.02-22.95 1.09-2.67-.32-4.29.25-3.96 3.29.19 1.78-.75 3.18-1.39 4.7-.55 1.29-2.22 2.8-.97 3.95.84.78 2.86.56 4.31.39 3.13-.37 6.21-1.19 9.33-1.41 1.45-.1 3.67-.38 4.18 1.73.53 2.18-1.17 3.56-2.92 4.03-4.96 1.34-10.02 2.25-15.2 2.25-3.06 0-5.73 3.45-5.06 6.32.39 1.68 1.82 1.09 2.86 1.16 5.32.36 10.58-.25 15.82-1.15.65-.11 1.31-.6 1.9-.5 2.02.34 4.78-.24 5.58 2.2.74 2.25-1.46 3.55-3.09 4.63-3.25 2.15-7.08 2.85-10.82 3.14-5.13.39-10.32.39-15.47.14-5.64-.27-7.8-3.75-5.97-9.3 1.33-4.04 2.95-7.98 4.73-12.74-11.13 4.23-22.11 4.73-33.08 5.22-2.11.09-2.88 1.42-3.5 2.99-1.88 4.78-3.53 9.65-5.58 14.36-.83 1.91-1.54 5.18-4.59 3.96-2.57-1.02-2.84-3.52-1.91-6.38.93-2.84 1.98-5.57 3.13-8.32.86-2.04 3.56-4.93-.9-6.73-1.31-.53-1.02-2.44-.51-3.65.66-1.57 2.19-2.03 3.77-1.82 4.66.62 5.56-2.36 6.02-5.98.12-.96.3-1.16-.73-2-3.44-2.78-2.72-6.83 1.47-7.88 8.32-2.09 16.76-1.9 25.08.25 1.62.42 3.23 1.5 2.88 3.52-.31 1.79-2.17 2.04-3.58 2.14-2.97.23-5.98.3-8.96.11-7.99-.48-7.98-.54-10.87 7.97zM159.7 39.07c-6.77 4.19-12.8 7.84-18.75 11.63-2.81 1.79-5.61 3.62-8.8 4.58-2.05.62-4.49.84-5.88-1.3-1.34-2.06-.56-4.1.93-5.94 4.16-5.12 8.25-10.31 12.42-15.42 1.18-1.45 2.19-2.88 1.78-5.95-3.95 3.15-7.48 5.73-10.07 9.56-6.43 9.52-9.97 20.56-16.14 30.2-1.01 1.57-2.16 3.67-4.75 2.25-2.17-1.19-2.99-3.02-2.54-5.44.06-.32.18-.64.29-.95 4.29-12.23 10.57-23.52 16.58-34.93 1.04-1.97 2.2-3.88 5.02-2.21 1.61.95 2.46-.78 3.24-1.57 1.79-1.84 3.89-3.02 6.13-4.16 3.24-1.66 7.17-1.8 9.37.11 2.54 2.21 2.46 6.49 1.19 9.86-1.26 3.36-2.46 6.84-5.18 9.49l.8.98c3.55-2.58 7.16-5.08 10.64-7.75 3.41-2.62 6.63-5.5 10.05-8.11 1.77-1.35 3.89-3.52 6.09-1.27 1.86 1.91 2.39 4.66 1.15 7.33-1.66 3.59-3.27 7.22-5.1 10.72-2.74 5.24-5.38 10.31-4.51 16.69.31 2.26-1.27 5.67-4.6 5.47-2.93-.17-4.31-2.38-4.47-5.58-.33-6.31 3.02-11.55 5.11-18.29zM95.3 41.75c5.55-.67 7.78 2.2 9.34 5.67 1.5 3.33-.28 5.72-2.32 8.46-7.71 10.38-18.81 14.02-30.7 16.26-2.3.43-4.62.05-6.85-.85-2.79-1.12-3.63-2.92-1.84-5.41 1.46-2.02 1.75-4.18 1.76-6.57.03-7.69 3.84-14.14 7.05-20.77.79-1.63 1.62-3.23 3.15-6.26-7.39 4.64-15.16 4.97-20.67 11.09-2.24 2.49-7.27 2.51-11.07 3.5-.96.25-2.01-.3-2.25-1.49-.23-1.16.52-1.9 1.41-2.4 5.31-3.03 10.46-6.38 15.99-8.94 8.2-3.79 16.62-7.11 25.04-10.4 4.47-1.75 9.21-2.64 14.04-2.89 3.23-.17 5.86.9 7.66 3.66 2.02 3.1.49 5.84-1.35 8.17-2.29 2.98-5.06 5.6-8.39 9.17zm2.15 7.6c-9.75.39-18.01 2.15-25.48 6.66-1.82 1.09-2.19 3.66-2.61 5.78-.22 1.13.25 2.11 1.58 1.84 9.82-2 18.88-5.46 26.51-14.28zm-21.09-5.04c7.74-4.9 14.9-9.06 21.02-15.74-11.67-1.91-15.36.89-21.02 15.74zM398.92 40.26c-4.85 1.99-7.44 5.17-10.56 7.58-6.16 4.75-10.39 3.44-12.23-4.71-2.41 4.07-6.3 6.01-9.03 9.3-1.91 2.3-4.52 3.38-8.02 2.16-3.51-1.22-4.55-3.23-4.54-6.62.01-2.65.38-5.19 1.24-7.98-3.85.55-5.71 3.55-8.28 5.41-4.05 2.94-8.18 5.76-13.42 5.87-4.78.1-7.17-3.16-5.23-7.57 4.26-9.66 12.31-15.17 22.14-17.53 4.91-1.18 10.17-.48 13.62-5.36 1.18-1.67 3.42-1.63 5.02-.6 1.8 1.17 1.6 3.13.74 4.93-1.14 2.39-1.86 5.2-3.6 7.03-3.49 3.69-3.73 8.17-4.36 12.97 6.38-3.29 9.35-9.96 14.92-13.78 1.22-.83 2.21-2.01 3.24-3.09 1.92-2 4.08-1.62 5.79-.09 1.64 1.47 2.42 3.45 1 5.8-1.05 1.74-3.03 3.31-1.74 6.2 4.24-3.78 9-6.61 13.84-9.3 4.23-2.35 8.31-.6 8.13 4.06-.18 4.83-.74 9.82-3.17 14.3-.72 1.33-1.54 2.1-3.1 1.9-1.68-.22-2.2-1.67-2.33-2.84-.26-2.41-.07-4.89-.07-8.04zm-42.58-11.45c-1.29-.48-2.42-1.35-3.04-1.07-7.2 3.21-14.62 6.22-18.89 13.49-.69 1.17-2.1 2.69-.85 4.03 1.12 1.21 2.7.51 4.08-.27 7.26-4.03 13.19-9.55 18.7-16.18zM65.74 108.96c5.11-3.54 9.89-6.77 14.57-10.13 2.6-1.87 5.56-3.43 8.02-.8 2.19 2.34.8 5.22-1.04 7.63-1.5 1.95-3.26 3.85-3.07 6.61.06.87-.73 2.28.83 2.38 2.22.15 3.08.95 2.2 3.12-.8 1.96-2 3.41-4.35 3.46-4.96.11-7.75-2.08-7.48-7.54-2.39.24-3.26 2.1-4.62 3.11-4.3 3.19-8.66 5.02-13.63 1.53-2.28-1.6-3.53-.13-4.99 1.34-4.46 4.49-9.16 8.54-15.71 9.81-2.29.44-4.34.85-5.84-1.24a5.78 5.78 0 01-.37-6.18c4.9-8.93 11.39-16.28 21.46-19.55 2.66-.86 4.26-2.12 5.51-4.96 1.9-4.34 3.05-9.06 6.09-12.97 1.35-1.73 2.88-2.68 4.69-3.33 3.69-1.32 5.53-.03 5.14 3.97-.5 5.13-2.24 9.96-5.03 14.35-1.69 2.66-3.7 5.2-2.38 9.39zm-28.8 13.09c6.86-3.52 12.07-8.79 16.66-14.75-7.78 2.41-12.91 7.83-16.66 14.75zM394.48 86.65c5.48-.76 9.4-3.69 13.8-5.34 2.02-.75 3.94-1.86 6.02-2.32 1.83-.41 4.27-.93 4.79 1.95.41 2.28-.93 3.34-3.06 4.36-7.83 3.74-15.51 7.81-25.04 10.35 6.05 4.24 11.26 7.86 16.43 11.54 3.87 2.76 8.47 4.68 10.87 9.16.72 1.34 2.75 2.56 1.28 4.34-1.25 1.52-3.36.9-4.67.27-5.62-2.73-11.57-4.9-16.23-9.33-3.69-3.51-8.49-5.54-12.05-9.39-2.09-2.26-3.01.78-3.29 2.31-.63 3.46-1.32 6.82-3.6 9.64-1.14 1.41-2.14 3.36-4.34 2.46-2.2-.9-2.26-2.98-1.95-5.06 1.56-10.63 6.32-19.72 13.52-27.55 3-3.26 6.26-6.3 9.6-9.22 1.28-1.12 3.23-2.49 4.87-.83 1.76 1.78.61 3.59-.81 5.21-1.93 2.21-3.75 4.55-6.14 7.45zM197.38 83.2c-6.36.1-11.71-.53-15.85 4.12-1.42 1.59-3.8 1.35-5.16-.77-1.23-1.92-.35-3.65 1.31-4.71 3.49-2.25 7.17-4.15 11.44-4.53 8.55-.76 17.04-2.09 25.27 2.22 4.56 2.39 7.57 5.44 7.38 10.63-.17 4.69-3.14 7.77-7.02 10.15-6.69 4.1-13.67 7.3-21.62 8.03-1.96.18-3.19 1.55-3.82 3.47-1.73 5.34-3.46 10.67-5.29 15.97-.67 1.92-1.74 4.01-4.13 3.62-2.64-.43-2.19-2.93-2.3-4.87-.15-2.77 1.15-5.18 2.25-7.55 2-4.32 4.28-8.49 2.93-13.53-.14-.52.22-1.58.63-1.77 5.09-2.28 4.77-7.55 6.58-11.63.6-1.36 1.33-2.7 2.2-3.89.58-.79 1.52-1.28 2.64-.77 1 .46 1.72 1.26 1.71 2.27-.01 1.13-.52 2.24-.71 3.38-.35 2.06-2.75 4.46-1.1 5.94 1.51 1.35 4.31-.1 6.33-.95 3.35-1.41 6.61-3.06 9.79-4.81 3.96-2.19 3.91-5.09-.12-7.33-4.48-2.51-9.37-3.14-13.34-2.69zM185.63 37.78c7.57-.28 13.42-1.74 19.29-.12 1.44.4 3.32.19 3.57 1.99.28 2.11-1.8 2.93-3.26 3.14-3.25.47-6.58.51-9.88.5-3.33-.02-6.63.01-9.92.66-3.1.61-3.58 2.72-3.11 5.22.56 2.93 2.6 1 3.96.9 5.61-.4 11.19-.98 16.83-.33 2.87.33 4.77 1.47 5.02 4.46.26 3.21-2.59 3.31-4.46 3.6-6.39 1-12.95.07-19.33 1.53-1.6.37-3.24.58-4.87.81-4.34.6-7.28-2.11-6.56-6.4 1.54-9.21 4.94-17.69 10.16-25.49 2.27-3.38 3.19-7.87 7.78-9.17 6.03-1.72 12.07-3.43 18.43-1.42 2.06.65 4.03 1.73 3.89 3.87-.18 2.8-2.82 1.43-4.41 1.69-4.57.76-9.19 1.2-13.72 2.12-6.43 1.29-5.47 7.81-9.41 12.44zM105.56 111.24c7.71 1.67 13.91-.25 20.2-1.31 1.26-.21 3.12-1.66 3.88.4.63 1.7-1.27 2.39-2.34 3.38-6.49 5.96-14.27 7.39-22.66 6.43-5.86-.67-10.85-7.43-9.68-13.95 1.16-6.46 3.18-12.76 8.97-17 3.69-2.7 10.77-2.98 13.38-.2 3.02 3.22 2.21 8.77-1.61 12.92-2.89 3.15-5.71 6.33-10.14 9.33zm5.49-15.97c-3.78.83-6.04 3.08-6.29 7.08 2.12-2.32 4.18-4.69 6.29-7.08zM252.14 103.47c1.34 3.81-1.44 6.82-3.07 9.88-2.84 5.34-5.99 10.53-10.87 14.52-3.26 2.66-6.84 3.33-10.12 1.75-3.25-1.57-4.12-5.5-4.24-8.98-.37-10.08 3.31-19 8.44-27.42.6-.99 1.28-1.93 1.93-2.89 3.68-5.47 5-5.36 10.46-1.61 5.27 3.62 8.01 8.1 7.47 14.75zm-7.34-.83c.58-3.56-.92-5.76-4.14-7.04-2.01-.8-3.7-.4-4.75 1.37-4.31 7.25-6.5 15.05-5.75 23.57.25 2.84 2.17 3.23 3.61 1.61 5.07-5.68 10.69-11.18 11.03-19.51zM256.76 117.27c0-2.88 1-5.56 2.04-8.13 4.05-10.07 7.52-20.45 14.13-29.28 1.19-1.59 2.43-3.2 3.95-4.44 1.02-.84 2.46-2.3 3.92-1.08 1.45 1.21 1.18 2.86.17 4.49-4.07 6.61-8.04 13.28-10.77 20.59-1.27 3.39-2.71 6.74-3.76 10.2-.61 1.99-.55 3.42 2.65 2.49 5.22-1.52 10.02-4.33 15.54-4.97 2.14-.25 4.33-.47 5.29 1.5 1.01 2.08-1.01 3.37-2.61 4.18-7.33 3.74-14.57 7.7-22.14 10.88-5.51 2.3-8.5-.35-8.41-6.43zM322.76 120.88c.87-6.4 4.12-12.26 7.51-17.81 2.27-3.72 3.17-7.99 5.73-11.46 1.2-1.62.27-2.4-1.16-2.85-1.73-.55-3.49-.99-5.26-1.4-1.8-.42-3.94-.66-3.66-3.14.29-2.56 2.32-3.8 4.65-3.37 5.59 1.04 11.21 1.03 16.82.86 2.72-.08 5.22.67 7.81 1.13 1.54.27 3.12.98 3.16 2.66.04 1.57-1.78 1.79-2.95 2.28-1.36.57-2.95 1.48-4.24 1.22-8.13-1.61-9.3 4.56-11.49 9.8-3.37 8.03-6.93 15.97-10.27 24.01-.99 2.37-2.72 3.63-4.94 3.11-2.25-.55-1.6-2.95-1.71-5.04zM353.6 115.13c1.33-8.16 3.77-15.74 7.81-22.56 2.03-3.43 3.21-7.18 5.19-10.59 1.09-1.87 2.1-3.49 4.53-2.8 2.32.66 2.12 2.66 2.1 4.5-.04 3.48-2.24 6.17-3.61 9.1-3.58 7.66-6.27 15.56-7.64 23.91-.13.81-.5 1.59-.6 2.41-.24 1.87-1.26 3.24-3.02 3.47-2.26.3-3.09-1.53-3.65-3.35-.45-1.41-.78-2.85-1.11-4.09zM293.74 122.9c2.29-6.54 4.53-13.23 7.79-19.57 3.16-6.15 5.9-12.51 8.79-18.79.72-1.57 1.45-3.21 3.58-2.62 2.27.63 1.78 2.67 1.47 4.15-1.45 6.98-4.34 13.48-7.12 19.99-2.72 6.36-5.12 12.88-8.9 18.74-.91 1.41-.81 4.29-3.22 3.47-1.87-.64-1.99-3.23-2.39-5.37zM95.43 82.56c-.01 1.49-.49 3.08-2.81 2.61-2.41-.49-5.07-.89-4.95-4.37.09-2.52.98-4.22 3.86-3.98 3.33.28 3.77 2.72 3.9 5.74zM170.31 18.22c-2.63.22-3.22-1.69-3.15-3.5.11-2.84 2.03-4.57 4.77-4.78 2.25-.18 3.39 1.65 3.01 3.6-.46 2.39-1.31 4.95-4.63 4.68z"/></svg>