<?xml version="1.0" encoding="utf-8"?>
<!-- Generator: Adobe Illustrator 25.2.0, SVG Export Plug-In . SVG Version: 6.00 Build 0)  -->
<svg version="1.1" id="Ebene_1" xmlns="http://www.w3.org/2000/svg" xmlns:xlink="http://www.w3.org/1999/xlink" x="0px" y="0px"
	 viewBox="0 0 460 144" style="enable-background:new 0 0 460 144;" xml:space="preserve">
<g>
	<path d="M230.19,35.91c10.12,0.16,19.84-1.61,29.66-1.23c4.41,0.17,6.84-3.14,7.87-9.61c1.23-7.73,1.23-7.7,9.33-7.33
		c5.62,0.26,11.24-0.02,16.89,0.41c2.7,0.21,5.15,0.81,7.67,1.47c1.28,0.33,2.9,0.54,2.51,2.37c-0.29,1.4-1.57,1.9-2.98,2.24
		c-7.59,1.82-15.25,2.02-22.95,1.09c-2.67-0.32-4.29,0.25-3.96,3.29c0.19,1.78-0.75,3.18-1.39,4.7c-0.55,1.29-2.22,2.8-0.97,3.95
		c0.84,0.78,2.86,0.56,4.31,0.39c3.13-0.37,6.21-1.19,9.33-1.41c1.45-0.1,3.67-0.38,4.18,1.73c0.53,2.18-1.17,3.56-2.92,4.03
		c-4.96,1.34-10.02,2.25-15.2,2.25c-3.06,0-5.73,3.45-5.06,6.32c0.39,1.68,1.82,1.09,2.86,1.16c5.32,0.36,10.58-0.25,15.82-1.15
		c0.65-0.11,1.31-0.6,1.9-0.5c2.02,0.34,4.78-0.24,5.58,2.2c0.74,2.25-1.46,3.55-3.09,4.63c-3.25,2.15-7.08,2.85-10.82,3.14
		c-5.13,0.39-10.32,0.39-15.47,0.14c-5.64-0.27-7.8-3.75-5.97-9.3c1.33-4.04,2.95-7.98,4.73-12.74
		c-11.13,4.23-22.11,4.73-33.08,5.22c-2.11,0.09-2.88,1.42-3.5,2.99c-1.88,4.78-3.53,9.65-5.58,14.36
		c-0.83,1.91-1.54,5.18-4.59,3.96c-2.57-1.02-2.84-3.52-1.91-6.38c0.93-2.84,1.98-5.57,3.13-8.32c0.86-2.04,3.56-4.93-0.9-6.73
		c-1.31-0.53-1.02-2.44-0.51-3.65c0.66-1.57,2.19-2.03,3.77-1.82c4.66,0.62,5.56-2.36,6.02-5.98c0.12-0.96,0.3-1.16-0.73-2
		c-3.44-2.78-2.72-6.83,1.47-7.88c8.32-2.09,16.76-1.9,25.08,0.25c1.62,0.42,3.23,1.5,2.88,3.52c-0.31,1.79-2.17,2.04-3.58,2.14
		c-2.97,0.23-5.98,0.3-8.96,0.11C233.07,27.46,233.08,27.4,230.19,35.91z"/>
	<path d="M159.7,39.07c-6.77,4.19-12.8,7.84-18.75,11.63c-2.81,1.79-5.61,3.62-8.8,4.58c-2.05,0.62-4.49,0.84-5.88-1.3
		c-1.34-2.06-0.56-4.1,0.93-5.94c4.16-5.12,8.25-10.31,12.42-15.42c1.18-1.45,2.19-2.88,1.78-5.95c-3.95,3.15-7.48,5.73-10.07,9.56
		c-6.43,9.52-9.97,20.56-16.14,30.2c-1.01,1.57-2.16,3.67-4.75,2.25c-2.17-1.19-2.99-3.02-2.54-5.44c0.06-0.32,0.18-0.64,0.29-0.95
		c4.29-12.23,10.57-23.52,16.58-34.93c1.04-1.97,2.2-3.88,5.02-2.21c1.61,0.95,2.46-0.78,3.24-1.57c1.79-1.84,3.89-3.02,6.13-4.16
		c3.24-1.66,7.17-1.8,9.37,0.11c2.54,2.21,2.46,6.49,1.19,9.86c-1.26,3.36-2.46,6.84-5.18,9.49c0.27,0.33,0.54,0.66,0.8,0.98
		c3.55-2.58,7.16-5.08,10.64-7.75c3.41-2.62,6.63-5.5,10.05-8.11c1.77-1.35,3.89-3.52,6.09-1.27c1.86,1.91,2.39,4.66,1.15,7.33
		c-1.66,3.59-3.27,7.22-5.1,10.72c-2.74,5.24-5.38,10.31-4.51,16.69c0.31,2.26-1.27,5.67-4.6,5.47c-2.93-0.17-4.31-2.38-4.47-5.58
		C154.26,51.05,157.61,45.81,159.7,39.07z"/>
	<path d="M95.3,41.75c5.55-0.67,7.78,2.2,9.34,5.67c1.5,3.33-0.28,5.72-2.32,8.46c-7.71,10.38-18.81,14.02-30.7,16.26
		c-2.3,0.43-4.62,0.05-6.85-0.85c-2.79-1.12-3.63-2.92-1.84-5.41c1.46-2.02,1.75-4.18,1.76-6.57c0.03-7.69,3.84-14.14,7.05-20.77
		c0.79-1.63,1.62-3.23,3.15-6.26c-7.39,4.64-15.16,4.97-20.67,11.09c-2.24,2.49-7.27,2.51-11.07,3.5c-0.96,0.25-2.01-0.3-2.25-1.49
		c-0.23-1.16,0.52-1.9,1.41-2.4c5.31-3.03,10.46-6.38,15.99-8.94c8.2-3.79,16.62-7.11,25.04-10.4c4.47-1.75,9.21-2.64,14.04-2.89
		c3.23-0.17,5.86,0.9,7.66,3.66c2.02,3.1,0.49,5.84-1.35,8.17C101.4,35.56,98.63,38.18,95.3,41.75z M97.45,49.35
		c-9.75,0.39-18.01,2.15-25.48,6.66c-1.82,1.09-2.19,3.66-2.61,5.78c-0.22,1.13,0.25,2.11,1.58,1.84
		C80.76,61.63,89.82,58.17,97.45,49.35z M76.36,44.31c7.74-4.9,14.9-9.06,21.02-15.74C85.71,26.66,82.02,29.46,76.36,44.31z"/>
	<path d="M398.92,40.26c-4.85,1.99-7.44,5.17-10.56,7.58c-6.16,4.75-10.39,3.44-12.23-4.71c-2.41,4.07-6.3,6.01-9.03,9.3
		c-1.91,2.3-4.52,3.38-8.02,2.16c-3.51-1.22-4.55-3.23-4.54-6.62c0.01-2.65,0.38-5.19,1.24-7.98c-3.85,0.55-5.71,3.55-8.28,5.41
		c-4.05,2.94-8.18,5.76-13.42,5.87c-4.78,0.1-7.17-3.16-5.23-7.57c4.26-9.66,12.31-15.17,22.14-17.53
		c4.91-1.18,10.17-0.48,13.62-5.36c1.18-1.67,3.42-1.63,5.02-0.6c1.8,1.17,1.6,3.13,0.74,4.93c-1.14,2.39-1.86,5.2-3.6,7.03
		c-3.49,3.69-3.73,8.17-4.36,12.97c6.38-3.29,9.35-9.96,14.92-13.78c1.22-0.83,2.21-2.01,3.24-3.09c1.92-2,4.08-1.62,5.79-0.09
		c1.64,1.47,2.42,3.45,1,5.8c-1.05,1.74-3.03,3.31-1.74,6.2c4.24-3.78,9-6.61,13.84-9.3c4.23-2.35,8.31-0.6,8.13,4.06
		c-0.18,4.83-0.74,9.82-3.17,14.3c-0.72,1.33-1.54,2.1-3.1,1.9c-1.68-0.22-2.2-1.67-2.33-2.84
		C398.73,45.89,398.92,43.41,398.92,40.26z M356.34,28.81c-1.29-0.48-2.42-1.35-3.04-1.07c-7.2,3.21-14.62,6.22-18.89,13.49
		c-0.69,1.17-2.1,2.69-0.85,4.03c1.12,1.21,2.7,0.51,4.08-0.27C344.9,40.96,350.83,35.44,356.34,28.81z"/>
	<path d="M65.74,108.96c5.11-3.54,9.89-6.77,14.57-10.13c2.6-1.87,5.56-3.43,8.02-0.8c2.19,2.34,0.8,5.22-1.04,7.63
		c-1.5,1.95-3.26,3.85-3.07,6.61c0.06,0.87-0.73,2.28,0.83,2.38c2.22,0.15,3.08,0.95,2.2,3.12c-0.8,1.96-2,3.41-4.35,3.46
		c-4.96,0.11-7.75-2.08-7.48-7.54c-2.39,0.24-3.26,2.1-4.62,3.11c-4.3,3.19-8.66,5.02-13.63,1.53c-2.28-1.6-3.53-0.13-4.99,1.34
		c-4.46,4.49-9.16,8.54-15.71,9.81c-2.29,0.44-4.34,0.85-5.84-1.24c-1.36-1.9-1.41-4.28-0.37-6.18c4.9-8.93,11.39-16.28,21.46-19.55
		c2.66-0.86,4.26-2.12,5.51-4.96c1.9-4.34,3.05-9.06,6.09-12.97c1.35-1.73,2.88-2.68,4.69-3.33c3.69-1.32,5.53-0.03,5.14,3.97
		c-0.5,5.13-2.24,9.96-5.03,14.35C66.43,102.23,64.42,104.77,65.74,108.96z M36.94,122.05c6.86-3.52,12.07-8.79,16.66-14.75
		C45.82,109.71,40.69,115.13,36.94,122.05z"/>
	<path d="M394.48,86.65c5.48-0.76,9.4-3.69,13.8-5.34c2.02-0.75,3.94-1.86,6.02-2.32c1.83-0.41,4.27-0.93,4.79,1.95
		c0.41,2.28-0.93,3.34-3.06,4.36c-7.83,3.74-15.51,7.81-25.04,10.35c6.05,4.24,11.26,7.86,16.43,11.54
		c3.87,2.76,8.47,4.68,10.87,9.16c0.72,1.34,2.75,2.56,1.28,4.34c-1.25,1.52-3.36,0.9-4.67,0.27c-5.62-2.73-11.57-4.9-16.23-9.33
		c-3.69-3.51-8.49-5.54-12.05-9.39c-2.09-2.26-3.01,0.78-3.29,2.31c-0.63,3.46-1.32,6.82-3.6,9.64c-1.14,1.41-2.14,3.36-4.34,2.46
		c-2.2-0.9-2.26-2.98-1.95-5.06c1.56-10.63,6.32-19.72,13.52-27.55c3-3.26,6.26-6.3,9.6-9.22c1.28-1.12,3.23-2.49,4.87-0.83
		c1.76,1.78,0.61,3.59-0.81,5.21C398.69,81.41,396.87,83.75,394.48,86.65z"/>
	<path d="M197.38,83.2c-6.36,0.1-11.71-0.53-15.85,4.12c-1.42,1.59-3.8,1.35-5.16-0.77c-1.23-1.92-0.35-3.65,1.31-4.71
		c3.49-2.25,7.17-4.15,11.44-4.53c8.55-0.76,17.04-2.09,25.27,2.22c4.56,2.39,7.57,5.44,7.38,10.63c-0.17,4.69-3.14,7.77-7.02,10.15
		c-6.69,4.1-13.67,7.3-21.62,8.03c-1.96,0.18-3.19,1.55-3.82,3.47c-1.73,5.34-3.46,10.67-5.29,15.97c-0.67,1.92-1.74,4.01-4.13,3.62
		c-2.64-0.43-2.19-2.93-2.3-4.87c-0.15-2.77,1.15-5.18,2.25-7.55c2-4.32,4.28-8.49,2.93-13.53c-0.14-0.52,0.22-1.58,0.63-1.77
		c5.09-2.28,4.77-7.55,6.58-11.63c0.6-1.36,1.33-2.7,2.2-3.89c0.58-0.79,1.52-1.28,2.64-0.77c1,0.46,1.72,1.26,1.71,2.27
		c-0.01,1.13-0.52,2.24-0.71,3.38c-0.35,2.06-2.75,4.46-1.1,5.94c1.51,1.35,4.31-0.1,6.33-0.95c3.35-1.41,6.61-3.06,9.79-4.81
		c3.96-2.19,3.91-5.09-0.12-7.33C206.24,83.38,201.35,82.75,197.38,83.2z"/>
	<path d="M185.63,37.78c7.57-0.28,13.42-1.74,19.29-0.12c1.44,0.4,3.32,0.19,3.57,1.99c0.28,2.11-1.8,2.93-3.26,3.14
		c-3.25,0.47-6.58,0.51-9.88,0.5c-3.33-0.02-6.63,0.01-9.92,0.66c-3.1,0.61-3.58,2.72-3.11,5.22c0.56,2.93,2.6,1,3.96,0.9
		c5.61-0.4,11.19-0.98,16.83-0.33c2.87,0.33,4.77,1.47,5.02,4.46c0.26,3.21-2.59,3.31-4.46,3.6c-6.39,1-12.95,0.07-19.33,1.53
		c-1.6,0.37-3.24,0.58-4.87,0.81c-4.34,0.6-7.28-2.11-6.56-6.4c1.54-9.21,4.94-17.69,10.16-25.49c2.27-3.38,3.19-7.87,7.78-9.17
		c6.03-1.72,12.07-3.43,18.43-1.42c2.06,0.65,4.03,1.73,3.89,3.87c-0.18,2.8-2.82,1.43-4.41,1.69c-4.57,0.76-9.19,1.2-13.72,2.12
		C188.61,26.63,189.57,33.15,185.63,37.78z"/>
	<path d="M105.56,111.24c7.71,1.67,13.91-0.25,20.2-1.31c1.26-0.21,3.12-1.66,3.88,0.4c0.63,1.7-1.27,2.39-2.34,3.38
		c-6.49,5.96-14.27,7.39-22.66,6.43c-5.86-0.67-10.85-7.43-9.68-13.95c1.16-6.46,3.18-12.76,8.97-17c3.69-2.7,10.77-2.98,13.38-0.2
		c3.02,3.22,2.21,8.77-1.61,12.92C112.81,105.06,109.99,108.24,105.56,111.24z M111.05,95.27c-3.78,0.83-6.04,3.08-6.29,7.08
		C106.88,100.03,108.94,97.66,111.05,95.27z"/>
	<path d="M252.14,103.47c1.34,3.81-1.44,6.82-3.07,9.88c-2.84,5.34-5.99,10.53-10.87,14.52c-3.26,2.66-6.84,3.33-10.12,1.75
		c-3.25-1.57-4.12-5.5-4.24-8.98c-0.37-10.08,3.31-19,8.44-27.42c0.6-0.99,1.28-1.93,1.93-2.89c3.68-5.47,5-5.36,10.46-1.61
		C249.94,92.34,252.68,96.82,252.14,103.47z M244.8,102.64c0.58-3.56-0.92-5.76-4.14-7.04c-2.01-0.8-3.7-0.4-4.75,1.37
		c-4.31,7.25-6.5,15.05-5.75,23.57c0.25,2.84,2.17,3.23,3.61,1.61C238.84,116.47,244.46,110.97,244.8,102.64z"/>
	<path d="M256.76,117.27c0-2.88,1-5.56,2.04-8.13c4.05-10.07,7.52-20.45,14.13-29.28c1.19-1.59,2.43-3.2,3.95-4.44
		c1.02-0.84,2.46-2.3,3.92-1.08c1.45,1.21,1.18,2.86,0.17,4.49c-4.07,6.61-8.04,13.28-10.77,20.59c-1.27,3.39-2.71,6.74-3.76,10.2
		c-0.61,1.99-0.55,3.42,2.65,2.49c5.22-1.52,10.02-4.33,15.54-4.97c2.14-0.25,4.33-0.47,5.29,1.5c1.01,2.08-1.01,3.37-2.61,4.18
		c-7.33,3.74-14.57,7.7-22.14,10.88C259.66,126,256.67,123.35,256.76,117.27z"/>
	<path d="M322.76,120.88c0.87-6.4,4.12-12.26,7.51-17.81c2.27-3.72,3.17-7.99,5.73-11.46c1.2-1.62,0.27-2.4-1.16-2.85
		c-1.73-0.55-3.49-0.99-5.26-1.4c-1.8-0.42-3.94-0.66-3.66-3.14c0.29-2.56,2.32-3.8,4.65-3.37c5.59,1.04,11.21,1.03,16.82,0.86
		c2.72-0.08,5.22,0.67,7.81,1.13c1.54,0.27,3.12,0.98,3.16,2.66c0.04,1.57-1.78,1.79-2.95,2.28c-1.36,0.57-2.95,1.48-4.24,1.22
		c-8.13-1.61-9.3,4.56-11.49,9.8c-3.37,8.03-6.93,15.97-10.27,24.01c-0.99,2.37-2.72,3.63-4.94,3.11
		C322.22,125.37,322.87,122.97,322.76,120.88z"/>
	<path d="M353.6,115.13c1.33-8.16,3.77-15.74,7.81-22.56c2.03-3.43,3.21-7.18,5.19-10.59c1.09-1.87,2.1-3.49,4.53-2.8
		c2.32,0.66,2.12,2.66,2.1,4.5c-0.04,3.48-2.24,6.17-3.61,9.1c-3.58,7.66-6.27,15.56-7.64,23.91c-0.13,0.81-0.5,1.59-0.6,2.41
		c-0.24,1.87-1.26,3.24-3.02,3.47c-2.26,0.3-3.09-1.53-3.65-3.35C354.26,117.81,353.93,116.37,353.6,115.13z"/>
	<path d="M293.74,122.9c2.29-6.54,4.53-13.23,7.79-19.57c3.16-6.15,5.9-12.51,8.79-18.79c0.72-1.57,1.45-3.21,3.58-2.62
		c2.27,0.63,1.78,2.67,1.47,4.15c-1.45,6.98-4.34,13.48-7.12,19.99c-2.72,6.36-5.12,12.88-8.9,18.74c-0.91,1.41-0.81,4.29-3.22,3.47
		C294.26,127.63,294.14,125.04,293.74,122.9z"/>
	<path d="M95.43,82.56c-0.01,1.49-0.49,3.08-2.81,2.61c-2.41-0.49-5.07-0.89-4.95-4.37c0.09-2.52,0.98-4.22,3.86-3.98
		C94.86,77.1,95.3,79.54,95.43,82.56z"/>
	<path d="M170.31,18.22c-2.63,0.22-3.22-1.69-3.15-3.5c0.11-2.84,2.03-4.57,4.77-4.78c2.25-0.18,3.39,1.65,3.01,3.6
		C174.48,15.93,173.63,18.49,170.31,18.22z"/>
</g>
</svg>
